<svg xmlns="http://www.w3.org/2000/svg" viewBox="0 0 100 100" preserveAspectRatio="xMidYMid" width="138" height="138" style="shape-rendering: auto; display: block; background: transparent;" xmlns:xlink="http://www.w3.org/1999/xlink"><g><g transform="rotate(0 50 50)">
  <rect fill="#0d394e" height="12" width="6" ry="2.04" rx="2.04" y="16" x="47">
    <animate repeatCount="indefinite" begin="-2.6960784313725488s" dur="2.941176470588235s" keyTimes="0;1" values="1;0" attributeName="opacity"></animate>
  </rect>
</g><g transform="rotate(30 50 50)">
  <rect fill="#0d394e" height="12" width="6" ry="2.04" rx="2.04" y="16" x="47">
    <animate repeatCount="indefinite" begin="-2.450980392156863s" dur="2.941176470588235s" keyTimes="0;1" values="1;0" attributeName="opacity"></animate>
  </rect>
</g><g transform="rotate(60 50 50)">
  <rect fill="#0d394e" height="12" width="6" ry="2.04" rx="2.04" y="16" x="47">
    <animate repeatCount="indefinite" begin="-2.2058823529411766s" dur="2.941176470588235s" keyTimes="0;1" values="1;0" attributeName="opacity"></animate>
  </rect>
</g><g transform="rotate(90 50 50)">
  <rect fill="#0d394e" height="12" width="6" ry="2.04" rx="2.04" y="16" x="47">
    <animate repeatCount="indefinite" begin="-1.9607843137254901s" dur="2.941176470588235s" keyTimes="0;1" values="1;0" attributeName="opacity"></animate>
  </rect>
</g><g transform="rotate(120 50 50)">
  <rect fill="#0d394e" height="12" width="6" ry="2.04" rx="2.04" y="16" x="47">
    <animate repeatCount="indefinite" begin="-1.7156862745098038s" dur="2.941176470588235s" keyTimes="0;1" values="1;0" attributeName="opacity"></animate>
  </rect>
</g><g transform="rotate(150 50 50)">
  <rect fill="#0d394e" height="12" width="6" ry="2.04" rx="2.04" y="16" x="47">
    <animate repeatCount="indefinite" begin="-1.4705882352941175s" dur="2.941176470588235s" keyTimes="0;1" values="1;0" attributeName="opacity"></animate>
  </rect>
</g><g transform="rotate(180 50 50)">
  <rect fill="#0d394e" height="12" width="6" ry="2.04" rx="2.04" y="16" x="47">
    <animate repeatCount="indefinite" begin="-1.2254901960784315s" dur="2.941176470588235s" keyTimes="0;1" values="1;0" attributeName="opacity"></animate>
  </rect>
</g><g transform="rotate(210 50 50)">
  <rect fill="#0d394e" height="12" width="6" ry="2.04" rx="2.04" y="16" x="47">
    <animate repeatCount="indefinite" begin="-0.9803921568627451s" dur="2.941176470588235s" keyTimes="0;1" values="1;0" attributeName="opacity"></animate>
  </rect>
</g><g transform="rotate(240 50 50)">
  <rect fill="#0d394e" height="12" width="6" ry="2.04" rx="2.04" y="16" x="47">
    <animate repeatCount="indefinite" begin="-0.7352941176470588s" dur="2.941176470588235s" keyTimes="0;1" values="1;0" attributeName="opacity"></animate>
  </rect>
</g><g transform="rotate(270 50 50)">
  <rect fill="#0d394e" height="12" width="6" ry="2.04" rx="2.04" y="16" x="47">
    <animate repeatCount="indefinite" begin="-0.49019607843137253s" dur="2.941176470588235s" keyTimes="0;1" values="1;0" attributeName="opacity"></animate>
  </rect>
</g><g transform="rotate(300 50 50)">
  <rect fill="#0d394e" height="12" width="6" ry="2.04" rx="2.04" y="16" x="47">
    <animate repeatCount="indefinite" begin="-0.24509803921568626s" dur="2.941176470588235s" keyTimes="0;1" values="1;0" attributeName="opacity"></animate>
  </rect>
</g><g transform="rotate(330 50 50)">
  <rect fill="#0d394e" height="12" width="6" ry="2.04" rx="2.04" y="16" x="47">
    <animate repeatCount="indefinite" begin="0s" dur="2.941176470588235s" keyTimes="0;1" values="1;0" attributeName="opacity"></animate>
  </rect>
</g><g></g></g><!-- [ldio] generated by https://loading.io --></svg>